<svg xmlns="http://www.w3.org/2000/svg" xmlns:xlink="http://www.w3.org/1999/xlink" width="500" zoomAndPan="magnify" viewBox="0 0 375 374.999991" height="500" preserveAspectRatio="xMidYMid meet" version="1.0"><defs><g/><clipPath id="719931d820"><rect x="0" width="166" y="0" height="43"/></clipPath></defs><path fill="#737373" d="M 147.359375 142.964844 C 156.777344 121.53125 182.398438 110.628906 203.636719 121.042969 L 208.390625 116.289062 C 192.34375 107.078125 171.507812 109.324219 157.800781 123.035156 C 152.253906 128.582031 148.472656 135.175781 147.359375 142.964844 Z M 147.359375 142.964844 " fill-opacity="1" fill-rule="evenodd"/><path fill="#00a656" d="M 151.054688 173.625 L 202.546875 134.183594 L 155.507812 154.9375 C 156.152344 137.035156 170.359375 120.570312 190.617188 119.046875 C 176.761719 117.902344 164.171875 123.585938 156.042969 132.839844 C 146.253906 143.988281 143.449219 160.375 151.054688 173.625 Z M 151.054688 173.625 " fill-opacity="1" fill-rule="evenodd"/><path fill="#737373" d="M 227.644531 162.503906 C 218.226562 183.941406 192.605469 194.839844 171.367188 184.429688 L 166.613281 189.183594 C 182.660156 198.390625 203.496094 196.144531 217.203125 182.4375 C 222.75 176.890625 226.53125 170.296875 227.644531 162.503906 Z M 227.644531 162.503906 " fill-opacity="1" fill-rule="evenodd"/><path fill="#00a656" d="M 223.949219 131.847656 L 172.457031 171.289062 L 219.496094 150.53125 C 218.851562 168.4375 204.644531 184.898438 184.386719 186.425781 C 198.242188 187.570312 210.832031 181.886719 218.960938 172.628906 C 228.75 161.480469 231.554688 145.097656 223.949219 131.847656 Z M 223.949219 131.847656 " fill-opacity="1" fill-rule="evenodd"/><g transform="matrix(1, 0, 0, 1, 104, 197)"><g clip-path="url(#719931d820)"><g fill="#737373" fill-opacity="1"><g transform="translate(1.626977, 33.493432)"><g><path d="M 7.015625 -21.953125 L 7.015625 0 L 4.921875 0 L 4.921875 -21.953125 L 0.65625 -21.953125 L 0.65625 -23.9375 L 11.28125 -23.9375 L 11.28125 -21.953125 Z M 7.015625 -21.953125 "/></g></g></g><g fill="#737373" fill-opacity="1"><g transform="translate(13.561653, 33.493432)"><g><path d="M 10.90625 -3.734375 L 5.234375 -9.921875 L 3.3125 0 L 1.296875 0 L 6.125 -23.9375 L 8.65625 -23.9375 L 13.75 0 L 11.65625 0 Z M 10.1875 -7.3125 L 7.390625 -20.890625 L 5.71875 -12.203125 Z M 10.1875 -7.3125 "/></g></g></g><g fill="#737373" fill-opacity="1"><g transform="translate(28.539844, 33.493432)"><g><path d="M 7.1875 -13.75 C 7.9375 -13 8.609375 -12.25 9.203125 -11.5 C 9.796875 -10.757812 10.269531 -9.960938 10.625 -9.109375 C 10.976562 -8.253906 11.15625 -7.269531 11.15625 -6.15625 C 11.15625 -4.21875 10.648438 -2.648438 9.640625 -1.453125 C 8.640625 -0.253906 7.332031 0.34375 5.71875 0.34375 C 4.53125 0.34375 3.546875 0.09375 2.765625 -0.40625 C 1.992188 -0.90625 1.242188 -1.691406 0.515625 -2.765625 L 2.359375 -3.796875 C 2.953125 -2.992188 3.5 -2.457031 4 -2.1875 C 4.5 -1.914062 5.101562 -1.78125 5.8125 -1.78125 C 6.539062 -1.78125 7.113281 -1.921875 7.53125 -2.203125 C 7.957031 -2.492188 8.28125 -2.859375 8.5 -3.296875 C 8.71875 -3.742188 8.859375 -4.203125 8.921875 -4.671875 C 8.992188 -5.140625 9.03125 -5.554688 9.03125 -5.921875 C 9.03125 -6.742188 8.921875 -7.46875 8.703125 -8.09375 C 8.484375 -8.71875 8.140625 -9.335938 7.671875 -9.953125 C 7.210938 -10.566406 6.59375 -11.238281 5.8125 -11.96875 C 4.675781 -13.082031 3.722656 -14.210938 2.953125 -15.359375 C 2.191406 -16.515625 1.800781 -17.90625 1.78125 -19.53125 C 1.757812 -21.0625 2.148438 -22.257812 2.953125 -23.125 C 3.765625 -23.988281 4.726562 -24.421875 5.84375 -24.421875 C 6.820312 -24.421875 7.628906 -24.171875 8.265625 -23.671875 C 8.910156 -23.171875 9.472656 -22.375 9.953125 -21.28125 L 7.96875 -20.453125 C 7.625 -21.160156 7.300781 -21.644531 7 -21.90625 C 6.707031 -22.164062 6.320312 -22.296875 5.84375 -22.296875 C 5.207031 -22.296875 4.71875 -22.050781 4.375 -21.5625 C 4.03125 -21.070312 3.875 -20.40625 3.90625 -19.5625 C 3.925781 -18.375 4.25 -17.335938 4.875 -16.453125 C 5.5 -15.566406 6.269531 -14.664062 7.1875 -13.75 Z M 7.1875 -13.75 "/></g></g></g><g fill="#737373" fill-opacity="1"><g transform="translate(40.337732, 33.493432)"><g><path d="M 5.984375 -15.9375 L 4.71875 -14.359375 L 4.71875 0 L 2.640625 0 L 2.640625 -23.9375 L 4.71875 -23.9375 L 4.71875 -17.171875 L 10.1875 -24.390625 L 11.65625 -23.15625 L 7.484375 -17.859375 L 13.953125 -0.65625 L 11.96875 0.234375 Z M 5.984375 -15.9375 "/></g></g></g><g fill="#737373" fill-opacity="1"><g transform="translate(55.281714, 33.493432)"><g/></g></g><g fill="#737373" fill-opacity="1"><g transform="translate(60.411228, 33.493432)"><g><path d="M 17.234375 -23.9375 L 17.234375 0 L 15.15625 0 L 15.15625 -20.65625 L 9.921875 -13.140625 L 4.71875 -20.625 L 4.71875 0 L 2.640625 0 L 2.640625 -23.9375 L 4.890625 -23.9375 L 9.984375 -16.65625 L 15.078125 -23.9375 Z M 17.234375 -23.9375 "/></g></g></g><g fill="#737373" fill-opacity="1"><g transform="translate(80.313742, 33.493432)"><g><path d="M 10.90625 -3.734375 L 5.234375 -9.921875 L 3.3125 0 L 1.296875 0 L 6.125 -23.9375 L 8.65625 -23.9375 L 13.75 0 L 11.65625 0 Z M 10.1875 -7.3125 L 7.390625 -20.890625 L 5.71875 -12.203125 Z M 10.1875 -7.3125 "/></g></g></g><g fill="#737373" fill-opacity="1"><g transform="translate(95.291933, 33.493432)"><g><path d="M 13.09375 -23.9375 L 13.09375 0 L 11.015625 0 L 11.015625 -13.234375 L 4.71875 -20.765625 L 4.71875 0 L 2.640625 0 L 2.640625 -23.9375 L 4.71875 -23.9375 L 11.015625 -16.421875 L 11.015625 -23.9375 Z M 13.09375 -23.9375 "/></g></g></g><g fill="#737373" fill-opacity="1"><g transform="translate(111.056643, 33.493432)"><g><path d="M 10.90625 -3.734375 L 5.234375 -9.921875 L 3.3125 0 L 1.296875 0 L 6.125 -23.9375 L 8.65625 -23.9375 L 13.75 0 L 11.65625 0 Z M 10.1875 -7.3125 L 7.390625 -20.890625 L 5.71875 -12.203125 Z M 10.1875 -7.3125 "/></g></g></g><g fill="#737373" fill-opacity="1"><g transform="translate(126.034834, 33.493432)"><g><path d="M 9.984375 -13.8125 L 12.078125 -13.8125 L 12.078125 0 L 10.1875 0 L 10.0625 -1.09375 C 9.695312 -0.65625 9.257812 -0.304688 8.75 -0.046875 C 8.25 0.210938 7.703125 0.34375 7.109375 0.34375 C 5.171875 0.34375 3.6875 -0.644531 2.65625 -2.625 C 1.632812 -4.613281 1.125 -7.601562 1.125 -11.59375 C 1.125 -15.945312 1.679688 -19.171875 2.796875 -21.265625 C 3.921875 -23.367188 5.585938 -24.421875 7.796875 -24.421875 C 8.546875 -24.421875 9.351562 -24.144531 10.21875 -23.59375 C 11.09375 -23.050781 11.78125 -22.242188 12.28125 -21.171875 L 10.703125 -20.078125 C 10.128906 -21.097656 9.554688 -21.742188 8.984375 -22.015625 C 8.421875 -22.296875 7.910156 -22.4375 7.453125 -22.4375 C 6.546875 -22.4375 5.816406 -22.128906 5.265625 -21.515625 C 4.722656 -20.898438 4.304688 -20.082031 4.015625 -19.0625 C 3.734375 -18.050781 3.539062 -16.945312 3.4375 -15.75 C 3.332031 -14.550781 3.28125 -13.367188 3.28125 -12.203125 C 3.28125 -11.085938 3.332031 -9.921875 3.4375 -8.703125 C 3.539062 -7.484375 3.734375 -6.34375 4.015625 -5.28125 C 4.304688 -4.21875 4.722656 -3.347656 5.265625 -2.671875 C 5.816406 -2.003906 6.546875 -1.671875 7.453125 -1.671875 C 8.003906 -1.671875 8.492188 -1.847656 8.921875 -2.203125 C 9.359375 -2.554688 9.710938 -2.953125 9.984375 -3.390625 Z M 9.984375 -13.8125 "/></g></g></g><g fill="#737373" fill-opacity="1"><g transform="translate(139.645145, 33.493432)"><g><path d="M 2.640625 -23.9375 L 9.984375 -23.9375 L 9.984375 -21.953125 L 4.71875 -21.953125 L 4.71875 -17.8125 L 7.96875 -17.8125 L 7.96875 -15.96875 L 4.71875 -15.96875 L 4.71875 -2.015625 L 9.984375 -2.015625 L 9.984375 0 L 2.640625 0 Z M 2.640625 -23.9375 "/></g></g></g><g fill="#737373" fill-opacity="1"><g transform="translate(150.656498, 33.493432)"><g><path d="M 6.84375 -11.390625 L 4.71875 -8.828125 L 4.71875 0 L 2.640625 0 L 2.640625 -23.9375 L 8.140625 -23.9375 C 9.671875 -23.9375 10.800781 -23.613281 11.53125 -22.96875 C 12.257812 -22.320312 12.625 -21.425781 12.625 -20.28125 C 12.625 -19.6875 12.53125 -19.144531 12.34375 -18.65625 C 12.164062 -18.164062 11.875 -17.648438 11.46875 -17.109375 C 11.070312 -16.578125 10.546875 -15.898438 9.890625 -15.078125 L 8.34375 -13.203125 L 13.75 -0.65625 L 11.875 0.3125 Z M 4.71875 -11.625 L 8.65625 -16.421875 C 9.15625 -17.035156 9.53125 -17.539062 9.78125 -17.9375 C 10.03125 -18.332031 10.207031 -18.703125 10.3125 -19.046875 C 10.414062 -19.390625 10.46875 -19.769531 10.46875 -20.1875 C 10.46875 -21.363281 9.703125 -21.953125 8.171875 -21.953125 L 4.71875 -21.953125 Z M 4.71875 -11.625 "/></g></g></g></g></g></svg>